# xmcd
#
# Track frame offsets: 
#        150
#        14086
#        27340
#        39845
#        53725
#        66591
#        79146
#        92838
#        106069
#        118747
#        132199
#        145283
#        158255
#        172477
#        183744
#        197033
#        208349
#        221528
#        233959
#        245950
#        258001
#        270304
#        282108
#        294394
#        306551
#
# Disc length: 4239 seconds
#
# Revision: 0
# Processed by: cddbd v1.5.2PL0 Copyright (c) Steve Scherf et al.
# Submitted via: ExactAudioCopy v0.99pb5
#
DISCID=7f108d19
DTITLE=Various Artist - The Grand Ole Opry Story - CD1
DYEAR=2014
DGENRE=Country
TTITLE0=Uncle Dave Macon - Uncle Dave's Beloved Solo (1926)
TTITLE1=DeFord Bailey - Pan American Blues (1927)
TTITLE2=McGee Brothers - The Tramp (1927)
TTITLE3=Uncle Dave Macon and His Fruit Jar Drinkers - Go Along Mule (192
TTITLE3=7)
TTITLE4=Sid Harkreader - Old Joe (1927)
TTITLE5=Dr Humphrey Bate and His Possum Hunters - Billy In The Low Groun
TTITLE5=d (1928)
TTITLE6=Binkley Brothers' Dixie Clodhoppers - I'll Rse When The Rooste
TTITLE6=r Crows (1928)
TTITLE7=Paul Warmack and His Gully Jumpers - The Little Red Caboose Behi
TTITLE7=nd The Train (1928)
TTITLE8=Theron Hale and Daughters - Hale's Rag (1928)
TTITLE9=Poplin-Woods Tennessee String Band - Are You From Dixie (1928)
TTITLE10=Blind Joe Mangum - Bacon And Cabbage (1928)
TTITLE11=Crook Brothers String Band - My Wife Died On Friday Night (19
TTITLE11=28)
TTITLE12=Uncle Jimmy Thompson - Lynchburg (1930)
TTITLE13=Asher Sizemore and Little Jimmy - By The Grave Of Nobody's Darl
TTITLE13=ing (1933)
TTITLE14=The Vagabonds - In The Sleepy Hills Of Tennessee (1933)
TTITLE15=Fiddlin' Arthur Smith - Cookin' Time In Cheatham County (1936
TTITLE15=)
TTITLE16=Roy Acuff with Cousin Jody - Great Speckle Bird (1937)
TTITLE17=Clayton McMichen - Bile Them Cabbage Down (1937)
TTITLE18=The Delmore Brothers - The Weary Lonesome Blues (1937)
TTITLE19=Roy Acuff with Bashful Brother Oswald - Old Age Pension Check
TTITLE19=(1939)
TTITLE20=Bill Monroe - Mule Skinner Blues (1940)
TTITLE21=Ernest Tubb - Walking The Floor Over You (1941)
TTITLE22=Bob Wills and His Texas Playboys - Goodbye Liza Jane (1945)
TTITLE23=Bill Monroe with David 'Stringbean' Akeman - Goodbye Old Pal 
TTITLE23=Bill (1945)
TTITLE24=Curly Fox and Texas Ruby - Don't Let That Man Get You Down (194
TTITLE24=5)
EXTD=
EXTT0=
EXTT1=
EXTT2=
EXTT3=
EXTT4=
EXTT5=
EXTT6=
EXTT7=
EXTT8=
EXTT9=
EXTT10=
EXTT11=
EXTT12=
EXTT13=
EXTT14=
EXTT15=
EXTT16=
EXTT17=
EXTT18=
EXTT19=
EXTT20=
EXTT21=
EXTT22=
EXTT23=
EXTT24=
PLAYORDER=
